<svg xmlns="http://www.w3.org/2000/svg" viewBox="0 0 91.34 67.42"><defs><style>.a{fill:#dd304d;}.b{fill:#565654;}</style></defs><path class="a" d="M17.89,27.08h-15v3.2H18.35v-3.2Zm-.47.93v1.33H3.79V28Z"/><path class="a" d="M65.2,9.69H62.36V26.5h3.31V9.69Zm-.46.93v15H63.29V10.62Z"/><path class="a" d="M60.09,14.55H57.25V31.36h3.3V14.55Zm-.47.93v15H58.18V15.48Z"/><path class="a" d="M55,7.44H52.13V24.26h3.31V7.44Zm-.46.94V23.33H53.06V8.38Z"/><path class="a" d="M49.86,2.78H47V54.64h3.3V2.78Zm-.47.93v50H48v-50Z"/><path class="a" d="M44.73,2.78H41.89V54.64H45.2V2.78Zm-.46.93v50H42.82v-50Z"/><path class="a" d="M39.61,2.78H36.76V54.64h3.31V2.78Zm-.47.93v50H37.7v-50Z"/><path class="a" d="M80.61,2.78H77.77V54.64h3.31V2.78Zm-.47.93v50H78.7v-50Z"/><path class="a" d="M80.61,2.78H77.77V54.64h3.31V2.78Zm-.47.93v50H78.7v-50Z"/><path class="a" d="M70.33,4.83H67.49V21.65H70.8V4.83Zm-.47.94v15H68.42V5.77Z"/><path class="a" d="M85.74,2.78H82.9V54.64h3.3V2.78Zm-.47.93v50H83.83v-50Z"/><path class="a" d="M85.74,2.78H82.9V54.64h3.3V2.78Zm-.47.93v50H83.83v-50Z"/><path class="a" d="M75.46,0H72.61V16.81h3.31V0ZM75,.93v15H73.55V.93Z"/><path class="a" d="M80.61,2.78H77.77V54.64h3.31V2.78Zm-.47.93v50H78.7v-50Z"/><path class="a" d="M90.86,2.78H88V54.64h3.31V2.78Zm-.46.93v50H89v-50Z"/><path class="a" d="M17.89,2.76h-15V6H18.35V2.76Zm-.47.94V5H3.79V3.7Z"/><path class="a" d="M17.89,7.58h-15v3.2H18.35V7.58Zm-.47.93V9.85H3.79V8.51Z"/><path class="a" d="M17.89,12.46h-15v3.2H18.35v-3.2Zm-.47.93v1.33H3.79V13.39Z"/><path class="a" d="M17.89,17.33h-15v3.2H18.35v-3.2Zm-.47.93V19.6H3.79V18.26Z"/><path class="a" d="M15,22.2H0v3.2H15.5V22.2Zm-.47.94v1.33H.93V23.14Z"/><path class="a" d="M17.89,27.08h-15v3.2H18.35v-3.2Zm-.47.93v1.33H3.79V28Z"/><path class="a" d="M20.75,32h-15v3.2H21.21V32Zm-.47.93v1.34H6.65V32.88Z"/><path class="a" d="M17.89,36.82h-15V40H18.35v-3.2Zm-.47.93v1.34H3.79V37.75Z"/><path class="a" d="M32.27,41.7H2.86v3.2H32.74V41.7Zm-.46.93V44h-28V42.63Z"/><path class="a" d="M32.27,46.57H2.86v3.2H32.74v-3.2Zm-.46.93v1.34h-28V47.5Z"/><path class="a" d="M32.27,51.45H2.86v3.19H32.74V51.45Zm-.46.93v1.33h-28V52.38Z"/><path class="b" d="M15.73,66.5A1.55,1.55,0,0,0,17.34,65h-.65a1,1,0,0,1-1,1c-.81,0-1.15-.71-1.15-1.44s.34-1.44,1.15-1.44a.89.89,0,0,1,.94.75h.67a1.5,1.5,0,0,0-1.61-1.3,2,2,0,0,0,0,4Z"/><path class="b" d="M19.12,66.49A1.45,1.45,0,1,0,17.73,65,1.33,1.33,0,0,0,19.12,66.49Zm0-2.42c.54,0,.78.5.78,1s-.24,1-.78,1-.78-.49-.78-1S18.58,64.07,19.12,64.07Z"/><path class="b" d="M21.61,65.11c0-.61.33-.94.74-.94a1.09,1.09,0,0,1,.26,0v-.59h-.23a.88.88,0,0,0-.8.6h0v-.53H21v2.74h.6Z"/><path class="b" d="M23.6,64h0v-.37H23v3.75h.61V66.06h0a1.07,1.07,0,0,0,.91.43c.82,0,1.19-.7,1.19-1.44a1.28,1.28,0,0,0-1.29-1.45A.92.92,0,0,0,23.6,64Zm1.53,1c0,.48-.2,1-.76,1s-.77-.41-.77-1,.27-1,.77-1S25.13,64.54,25.13,65Z"/><path class="b" d="M26.17,65a1.39,1.39,0,1,0,1.38-1.44A1.33,1.33,0,0,0,26.17,65Zm1.38-1c.54,0,.78.5.78,1s-.24,1-.78,1-.78-.49-.78-1S27,64.07,27.55,64.07Z"/><path class="b" d="M29.44,63.67v2.74h.61v-1.3c0-.61.32-.94.74-.94l.26,0v-.59h-.23a.88.88,0,0,0-.8.6h0v-.53Z"/><path class="b" d="M32.32,64.83c-.51.06-1.05.17-1.05.85a.83.83,0,0,0,.93.81,1.36,1.36,0,0,0,.95-.34.42.42,0,0,0,.47.34,1.59,1.59,0,0,0,.38-.07V66h-.15c-.11,0-.14-.06-.14-.21V64.39c0-.58-.56-.79-1.1-.79s-1.2.2-1.24.91H32c0-.3.27-.44.61-.44s.56.06.56.37S32.76,64.75,32.32,64.83Zm.79.66c0,.38-.42.52-.68.52s-.56-.08-.56-.35.23-.41.49-.46a2.31,2.31,0,0,0,.75-.16Z"/><path class="b" d="M34.54,62.85v.82h-.45v.45h.45v1.62c0,.45.13.7.76.7.14,0,.26,0,.4,0v-.47a1.18,1.18,0,0,1-.26,0c-.27,0-.29-.13-.29-.38V64.12h.55v-.45h-.55v-.82Z"/><path class="b" d="M37.34,66.49a1.2,1.2,0,0,0,1.24-.94H38a.64.64,0,0,1-.67.46.73.73,0,0,1-.74-.81h2A1.33,1.33,0,1,0,36,65,1.3,1.3,0,0,0,37.34,66.49Zm0-2.42a.72.72,0,0,1,.69.73H36.6A.72.72,0,0,1,37.32,64.07Z"/><path class="b" d="M42.25,66.5A1.54,1.54,0,0,0,43.86,65h-.64a1,1,0,0,1-1,1c-.81,0-1.15-.71-1.15-1.44s.34-1.44,1.15-1.44a.9.9,0,0,1,1,.75h.66a1.48,1.48,0,0,0-1.61-1.3,2,2,0,0,0,0,4Z"/><path class="b" d="M47.09,65a1.39,1.39,0,1,0-1.38,1.45A1.32,1.32,0,0,0,47.09,65Zm-1.38,1c-.55,0-.78-.49-.78-1s.23-1,.78-1,.78.5.78,1S46.25,66,45.71,66Z"/><path class="b" d="M47.59,63.67v2.74h.61V64.78a.63.63,0,0,1,.6-.71c.36,0,.48.2.48.58v1.76h.61V64.8c0-.46.17-.73.58-.73s.5.31.5.74v1.6h.6V64.52a.8.8,0,0,0-.91-.92,1,1,0,0,0-.86.45A.79.79,0,0,0,49,63.6a.92.92,0,0,0-.85.45h0v-.38Z"/><path class="b" d="M52.8,64.05h0v-.38h-.57v2.74h.6V64.78a.64.64,0,0,1,.6-.71c.37,0,.49.2.49.58v1.76h.6V64.8c0-.46.18-.73.58-.73s.5.31.5.74v1.6h.61V64.52a.8.8,0,0,0-.92-.92,1,1,0,0,0-.86.45.77.77,0,0,0-.77-.45A.91.91,0,0,0,52.8,64.05Z"/><path class="b" d="M56.82,63.67v1.74c0,.71.31,1.08,1,1.08a.92.92,0,0,0,.78-.46h0v.38h.59V63.67h-.6v1.59c0,.42-.17.75-.67.75-.34,0-.53-.18-.53-.66V63.67Z"/><path class="b" d="M59.87,63.67v2.74h.61V64.79a.66.66,0,0,1,.66-.72c.35,0,.52.19.53.62v1.72h.61V64.53a.86.86,0,0,0-1-.93,1,1,0,0,0-.86.48h0v-.4Z"/><rect class="b" x="62.93" y="63.67" width="0.61" height="2.74"/><rect class="b" x="62.93" y="62.62" width="0.61" height="0.57"/><path class="b" d="M65.42,64.07a.59.59,0,0,1,.63.52h.6a1.11,1.11,0,0,0-1.24-1,1.31,1.31,0,0,0-1.35,1.47,1.29,1.29,0,0,0,1.33,1.42,1.19,1.19,0,0,0,1.26-1.11h-.6a.66.66,0,0,1-.66.63c-.52,0-.72-.48-.72-.94C64.67,64.24,65.11,64.07,65.42,64.07Z"/><path class="b" d="M68.11,64.83c-.51.06-1.06.17-1.06.85a.84.84,0,0,0,.94.81,1.37,1.37,0,0,0,1-.34.42.42,0,0,0,.47.34,1.59,1.59,0,0,0,.38-.07V66h-.15c-.11,0-.14-.06-.14-.21V64.39c0-.58-.56-.79-1.1-.79s-1.2.2-1.25.91h.61c0-.3.26-.44.6-.44s.57.06.57.37S68.55,64.75,68.11,64.83Zm.78.66c0,.38-.41.52-.68.52s-.55-.08-.55-.35.23-.41.49-.46a2.19,2.19,0,0,0,.74-.16Z"/><path class="b" d="M71,62.85h-.61v.82h-.45v.45h.45v1.62c0,.45.13.7.76.7.14,0,.26,0,.4,0v-.47a1.14,1.14,0,0,1-.26,0c-.27,0-.29-.13-.29-.38V64.12h.55v-.45H71Z"/><rect class="b" x="72.02" y="62.62" width="0.61" height="0.57"/><rect class="b" x="72.02" y="63.67" width="0.61" height="2.74"/><path class="b" d="M74.54,66.49A1.45,1.45,0,1,0,73.15,65,1.33,1.33,0,0,0,74.54,66.49Zm0-2.42c.54,0,.78.5.78,1s-.24,1-.78,1-.78-.49-.78-1S74,64.07,74.54,64.07Z"/><path class="b" d="M77,64.79a.67.67,0,0,1,.66-.72c.36,0,.53.19.54.62v1.72h.61V64.53a.87.87,0,0,0-1-.93,1,1,0,0,0-.85.48h0v-.4h-.57v2.74H77Z"/><path class="b" d="M80.54,66.49c.57,0,1.23-.24,1.23-.89s-.45-.71-.89-.81-.89-.14-.89-.44.33-.28.5-.28.5.08.56.37h.63c-.08-.61-.58-.84-1.15-.84s-1.14.18-1.14.78.43.72.88.81.88.14.89.46-.38.36-.61.36-.58-.13-.62-.48h-.6C79.34,66.18,79.85,66.49,80.54,66.49Z"/><rect class="b" x="83.42" y="62.63" width="0.66" height="3.79"/><path class="b" d="M85.37,64.8a.67.67,0,0,1,.66-.72c.35,0,.52.19.54.62v1.72h.6V64.54a.87.87,0,0,0-1-.94,1,1,0,0,0-.85.49h0v-.4h-.58v2.74h.61Z"/><path class="b" d="M89,66.49a1.18,1.18,0,0,0,1.26-1.1h-.61A.66.66,0,0,1,89,66c-.52,0-.73-.49-.73-.94,0-.83.44-1,.76-1a.57.57,0,0,1,.62.52h.61a1.11,1.11,0,0,0-1.24-1,1.32,1.32,0,0,0-1.35,1.48A1.29,1.29,0,0,0,89,66.49Z"/><rect class="b" x="90.6" y="65.7" width="0.74" height="0.72"/><polygon class="b" points="5.45 65.85 3.52 65.85 3.52 62.63 2.86 62.63 2.86 66.42 5.45 66.42 5.45 65.85"/><rect class="b" x="5.98" y="62.63" width="0.61" height="0.57"/><rect class="b" x="5.98" y="63.68" width="0.61" height="2.74"/><path class="b" d="M7.8,64.8a.67.67,0,0,1,.67-.72c.35,0,.52.19.53.62v1.72h.61V64.54a.87.87,0,0,0-1-.94,1,1,0,0,0-.86.49h0v-.4H7.2v2.74h.6Z"/><polygon class="b" points="10.81 65.44 11.17 65.09 12.01 66.42 12.74 66.42 11.59 64.69 12.64 63.68 11.9 63.68 10.81 64.79 10.81 62.63 10.2 62.63 10.2 66.42 10.81 66.42 10.81 65.44"/></svg>
