<svg xmlns="http://www.w3.org/2000/svg" viewBox="0 0 2279.41 727.85"><defs><style>.a{fill:#cc2631;}.b{fill:#fff;}</style></defs><path class="a" d="M366.58,142.1C358.39,78,329,27,299.61,27c-32.26,0-59.24,45.27-69.84,115.12h-5.3c-64.07-13.49-98.75-32.27-98.75-56.36,0-34.68,74.65-61.66,168.59-61.66,96.34,0,176.3,27,176.3,61.66C470.62,109.83,430.65,133.91,366.58,142.1Zm229.76,50.58C596.34,83.33,465.32,0,296.72,0,131,0,0,83.33,0,190.28,0,300.11,131,385.36,299.61,385.36c162.83,0,296.73-85.27,296.73-192.68ZM320.81,361.27c34.68-31.79,51.06-88.15,51.06-171l2.41-2.9C460,176.78,518.8,139.2,518.8,99.23V96.34c24.09,27,34.68,56.35,34.68,88.63,0,91-101.65,168.6-232.67,176.3ZM77.56,93.93c-2.89,2.41-2.89,2.41-2.89,5.3,0,40,58.76,75.14,147.4,88.14l2.41,2.9v5.29c0,80.44,18.79,136.32,51.06,165.7C138.74,350.66,42.39,276,42.39,182.07c0-29.38,11.07-61.65,35.17-88.14Zm262,53.47H259.15l-5.31-2.89c8.19-45.28,24.09-72.26,42.88-72.26,21.67,0,34.68,24.09,42.88,72.26Zm5.29,45.28c-2.41,64.55-21.19,109.83-45.28,109.83-27,0-45.75-45.28-48.17-109.83h2.42c13.49,0,29.39,2.89,48.17,2.89C323.7,195.56,329,195.56,344.89,192.68ZM883,109.83H797.21V329.48H735.55V109.83H652.7V59.25H883ZM1118,195.56c0,53.47-31.79,91.05-77.54,91.05-48.17,0-80-34.69-80-91.05,2.41-53.48,31.79-91,80-91C1086.23,104.52,1118,142.1,1118,195.56Zm64.55,0c0-80.45-64.55-144.51-142.11-144.51C960.51,51.05,896,115.11,896,198c0,78,64.55,142.11,142.11,142.11,82.84,0,144.51-64.07,144.51-144.52Zm173.9,34.69v99.23h-61.66V230.25l-107-171h69.35l67,112.24,69.35-112.24h72.24Zm329-34.69c0,53.47-29.42,91.05-77.56,91.05s-77.56-34.69-77.56-91.05c0-53.48,31.79-91,80-91C1656.07,104.52,1685.49,142.1,1685.49,195.56Zm67,0a143.71,143.71,0,0,0-142.9-144.51h-1.63c-77.56,0-142.11,64.06-142.11,146.92,0,78,61.66,142.11,142.11,142.11S1752.44,276,1752.44,195.56Zm243.26-85.73h-85.27V329.48h-61.65V109.83h-82.87V59.25H1995.7ZM2124.3,118l37.57,104.05h-77.55l40-104Zm37.57-58.76h-75.14L1976.89,329.48h66.95l21.69-59.24h115.13l24.08,59.24h66.47ZM0,727.85H2279.41V436.42H0Z"/><path class="b" d="M88.14,511.09H192.2v27H120.42v34.69H181.6v27H120.42v58.77H88.14V511.09ZM205.69,658.47h34.68V511.09H205.69Zm58.76-147.38h32.27l61.66,99.22V511.09h29.39V658.47H355.5l-61.18-99.23v99.23H264.45V511.09Zm206.17,37.56,18.79,53.47H451.84ZM398.37,658.48h32.27l13.48-32.27H497.6l10.59,32.27h34.69L486.51,511.09H454.72Zm155.1-147.39h32.28l61.65,99.22V511.09h29.39V658.47H644.52l-61.66-99.23v99.23H553.47V511.09Zm243.74,51.05a32.54,32.54,0,0,0-32.27-27c-29.39,0-40,24.08-40,51.07,0,24.08,10.59,48.17,40,48.17,18.78,0,32.27-13.49,34.68-32.27H829c-2.41,37.56-26.48,61.66-64,61.66-45.28,0-72.26-34.69-72.26-77.54s27-77.55,72.26-77.55c32.27,0,58.76,18.78,64,53.46h-31.8Zm48.17,96.33h31.8V511.09h-31.8ZM962.93,548.65l18.78,53.47H944.15ZM890.66,658.48h32.28l10.6-32.27H989.9l10.59,32.27h34.68L979.3,511.09H947L890.66,658.48Zm152.71-147.39h32.26V631.5h71.78v27h-104V511.09Zm195.09,99.22c0,18.78,13.47,26.49,32.27,26.49,10.58,0,27-2.41,27-18.3,0-16.38-21.68-18.79-42.89-24.08C1233.15,588.65,1212,580.93,1212,554c0-31.8,26.49-45.27,53.47-45.27,32.27,0,58.77,13.47,58.77,48.17H1294.8c-2.89-18.8-13.5-24.09-29.39-24.09-10.61,0-24.09,5.29-24.09,18.79,0,10.59,8.19,10.59,45.27,21.2,11.09,2.89,42.89,8.18,42.89,42.88,0,27-21.21,48.17-61.66,48.17-31.79,0-61.18-15.91-61.18-53.48h31.82v0Zm107.4-99.22h109.36v27h-77.56v32.28h72.27v26.49h-72.27V631.5h80.45v27H1345.86V511.09Zm160.44,27h37.56c13,0,21.2,5.31,21.2,18.79,0,15.9-8.21,21.2-21.2,21.2H1506.3v-40ZM1474,658.48h32.27V602.12h31.79c16.37,0,24.06,5.29,27,21.67,0,13,0,26.5,2.89,34.69h34.68c-8.18-8.19-8.18-24.08-8.18-34.69,0-13.48-5.32-29.39-21.21-35.16,15.89-5.3,24.09-18.3,24.09-37.08,0-21.68-16.4-40.46-42.89-40.46H1474V658.47h0Zm211.48,0H1647.9l-48.16-147.38h34.67l32.28,104.52,34.68-104.52h32.27l-48.15,147.38Zm64,0h32.29V511.09h-32.29Zm155.11-96.33c-2.41-15.91-15.92-27-31.79-27-29.39,0-40.48,24.08-40.48,51.07,0,24.08,11.09,48.17,40.48,48.17,18.77,0,29.39-13.49,31.79-32.27h32.27c-2.41,37.56-29.39,61.66-64.06,61.66-45.77,0-72.27-34.69-72.27-77.54s26.5-77.55,72.27-77.55c31.79,0,58.77,18.78,61.66,53.46h-29.87v0Zm45.76-51.05h109.84v27h-77.58v32.28h69.39v26.49h-69.39V631.5h77.58v27H1950.41V511.09Zm152.21,99.22c0,18.78,16.39,26.49,32.27,26.49,10.61,0,29.39-2.41,29.39-18.3,0-16.38-21.18-18.79-42.87-24.08-24.08-5.77-45.29-13.49-45.29-40.46,0-31.8,29.39-45.27,56.37-45.27,29.39,0,58.76,13.47,58.76,48.17H2159c0-18.8-13.48-24.09-29.39-24.09-10.59,0-21.21,5.29-21.21,18.79,0,10.59,5.32,10.59,42.41,21.2,11.08,2.89,45.75,8.18,45.75,42.88,0,27-21.66,48.17-61.66,48.17-32.27,0-64.06-15.91-64.06-53.48h31.79v0Z"/></svg>
