<svg xmlns="http://www.w3.org/2000/svg" viewBox="0 0 244.67 151.11"><defs><style>.a{fill:#005893;}.b{fill:#231815;}</style></defs><title>アセット 2</title><path class="a" d="M190.15,0a8.73,8.73,0,1,0,8.73,8.72A8.74,8.74,0,0,0,190.15,0Z"/><path class="a" d="M54.51,83.7a8.73,8.73,0,1,0,8.73,8.73A8.72,8.72,0,0,0,54.51,83.7Z"/><polygon class="a" points="170.48 63.24 186.88 31.04 178.02 31.04 139.61 63.24 170.48 63.24"/><path class="a" d="M96.17,90.4a7.13,7.13,0,0,1,.87-10L155.84,31H78.76L62.37,63.22h15.4L107.71,38.1A7.13,7.13,0,1,1,116.88,49L98,64.85,68.73,122.29H109.5l30.09-59-33.38,28A7.15,7.15,0,0,1,96.17,90.4Z"/><path class="b" d="M0,137.41H10.83v2H6.58v11.35H4.24V139.44H0Z"/><path class="b" d="M17.71,137.09a6.28,6.28,0,0,1,2.69.56,6.15,6.15,0,0,1,2,1.52,6.69,6.69,0,0,1,1.26,2.23,8.57,8.57,0,0,1,0,5.42,6.69,6.69,0,0,1-1.26,2.23,5.86,5.86,0,0,1-2,1.51,6.28,6.28,0,0,1-2.69.55,6.31,6.31,0,0,1-2.69-.55,5.92,5.92,0,0,1-2-1.51,6.89,6.89,0,0,1-1.27-2.23,8.57,8.57,0,0,1,0-5.42A6.89,6.89,0,0,1,13,139.17a6.21,6.21,0,0,1,2-1.52A6.31,6.31,0,0,1,17.71,137.09Zm0,1.91a3.71,3.71,0,0,0-1.84.44,3.6,3.6,0,0,0-1.27,1.15,5.41,5.41,0,0,0-.72,1.64,7.76,7.76,0,0,0,0,3.75,5.41,5.41,0,0,0,.72,1.64,3.79,3.79,0,0,0,6.23,0,5.41,5.41,0,0,0,.72-1.64,7.76,7.76,0,0,0,0-3.75,5.41,5.41,0,0,0-.72-1.64,3.6,3.6,0,0,0-1.27-1.15A3.72,3.72,0,0,0,17.71,139Z"/><path class="b" d="M29,145.55l-5-8.14h2.72l3.54,6,3.49-6h2.63l-5,8.14v5.24H29Z"/><path class="b" d="M43,137.09a6,6,0,0,1,4.71,2.08A6.87,6.87,0,0,1,49,141.4a8.57,8.57,0,0,1,0,5.42,6.87,6.87,0,0,1-1.26,2.23,6,6,0,0,1-2,1.51,6.85,6.85,0,0,1-5.38,0,5.92,5.92,0,0,1-2-1.51A6.72,6.72,0,0,1,37,146.82a8.57,8.57,0,0,1,0-5.42,6.72,6.72,0,0,1,1.27-2.23,6.21,6.21,0,0,1,2-1.52A6.28,6.28,0,0,1,43,137.09ZM43,139a3.75,3.75,0,0,0-1.85.44,3.57,3.57,0,0,0-1.26,1.15,5,5,0,0,0-.72,1.64,7.44,7.44,0,0,0,0,3.75,5,5,0,0,0,.72,1.64,3.66,3.66,0,0,0,1.26,1.15,4.19,4.19,0,0,0,3.7,0,3.66,3.66,0,0,0,1.26-1.15,5,5,0,0,0,.72-1.64,7.44,7.44,0,0,0,0-3.75,5,5,0,0,0-.72-1.64,3.57,3.57,0,0,0-1.26-1.15A3.75,3.75,0,0,0,43,139Z"/><path class="b" d="M49.88,137.41H60.71v2H56.46v11.35H54.11V139.44H49.88Z"/><path class="b" d="M65.47,137.41H68l5.15,13.38H70.61l-1.26-3.54H64l-1.25,3.54H60.34Zm-.82,8.06h4.08l-2-5.75h-.06Z"/><path class="b" d="M78.33,137.41H89.17v2H84.91v11.35H82.57V139.44H78.33Z"/><path class="b" d="M91.88,146.33a3,3,0,0,0,.27,1.32,2.34,2.34,0,0,0,.73.89A3,3,0,0,0,94,149a5.1,5.1,0,0,0,1.33.16,4.19,4.19,0,0,0,1.31-.18,2.7,2.7,0,0,0,.88-.46,1.67,1.67,0,0,0,.49-.64,2,2,0,0,0,.15-.74,1.62,1.62,0,0,0-.35-1.14,2,2,0,0,0-.76-.51,15.29,15.29,0,0,0-1.66-.5L93,144.42a5.2,5.2,0,0,1-1.44-.59,3.24,3.24,0,0,1-.9-.81,2.71,2.71,0,0,1-.48-1,3.6,3.6,0,0,1-.14-1,3.46,3.46,0,0,1,.42-1.75,3.65,3.65,0,0,1,1.11-1.23,4.74,4.74,0,0,1,1.58-.72,6.75,6.75,0,0,1,1.78-.24,7.07,7.07,0,0,1,2,.27,5.21,5.21,0,0,1,1.63.82,3.92,3.92,0,0,1,1.53,3.19H97.73a2.22,2.22,0,0,0-.88-1.83,3.45,3.45,0,0,0-2-.54,4.17,4.17,0,0,0-.85.09,2.56,2.56,0,0,0-.79.28,1.86,1.86,0,0,0-.59.53,1.52,1.52,0,0,0-.23.85,1.45,1.45,0,0,0,.44,1.11,2.86,2.86,0,0,0,1.15.61l.59.16,1.16.31,1.24.33.87.23a4,4,0,0,1,1.15.57,3.48,3.48,0,0,1,1.46,2.84,3.8,3.8,0,0,1-.46,1.93,4,4,0,0,1-1.21,1.3,5.32,5.32,0,0,1-1.7.74,8.43,8.43,0,0,1-4.11,0,5.07,5.07,0,0,1-1.76-.86,4.21,4.21,0,0,1-1.2-1.49,4.94,4.94,0,0,1-.47-2.15Z"/><path class="b" d="M102,137.41h2.34v7.8a12.83,12.83,0,0,0,.07,1.37,3.1,3.1,0,0,0,.37,1.24,2.36,2.36,0,0,0,.94.91,4.53,4.53,0,0,0,3.54,0,2.36,2.36,0,0,0,.94-.91,3.1,3.1,0,0,0,.37-1.24,12.83,12.83,0,0,0,.07-1.37v-7.8H113V146a6,6,0,0,1-.39,2.25,4.37,4.37,0,0,1-1.12,1.6,4.64,4.64,0,0,1-1.73,1,8.07,8.07,0,0,1-4.5,0,4.64,4.64,0,0,1-1.73-1,4.37,4.37,0,0,1-1.12-1.6A6,6,0,0,1,102,146Z"/><path class="b" d="M116.81,146.33a3,3,0,0,0,.27,1.32,2.34,2.34,0,0,0,.73.89,3,3,0,0,0,1.07.5,5.1,5.1,0,0,0,1.33.16,4.19,4.19,0,0,0,1.31-.18,2.7,2.7,0,0,0,.88-.46,1.67,1.67,0,0,0,.49-.64,2,2,0,0,0,.15-.74,1.62,1.62,0,0,0-.35-1.14,2,2,0,0,0-.76-.51,15.29,15.29,0,0,0-1.66-.5l-2.33-.61a5.08,5.08,0,0,1-1.44-.59,3.44,3.44,0,0,1-.91-.81,2.86,2.86,0,0,1-.47-1,3.6,3.6,0,0,1-.14-1,3.46,3.46,0,0,1,.42-1.75,3.65,3.65,0,0,1,1.11-1.23,4.74,4.74,0,0,1,1.58-.72,6.7,6.7,0,0,1,1.78-.24,7.07,7.07,0,0,1,2,.27,5.21,5.21,0,0,1,1.63.82,3.87,3.87,0,0,1,1.52,3.19h-2.34a2.22,2.22,0,0,0-.88-1.83,3.46,3.46,0,0,0-2-.54,4.14,4.14,0,0,0-.84.09,2.56,2.56,0,0,0-.79.28,1.86,1.86,0,0,0-.59.53,1.52,1.52,0,0,0-.23.85,1.45,1.45,0,0,0,.44,1.11,2.86,2.86,0,0,0,1.15.61l.59.16,1.16.31,1.24.33.87.23a4,4,0,0,1,1.15.57,3.48,3.48,0,0,1,1.46,2.84,3.8,3.8,0,0,1-.46,1.93,4,4,0,0,1-1.21,1.3,5.32,5.32,0,0,1-1.7.74,8.43,8.43,0,0,1-4.11,0,5.07,5.07,0,0,1-1.76-.86,4.21,4.21,0,0,1-1.2-1.49,4.94,4.94,0,0,1-.47-2.15Z"/><path class="b" d="M127,137.41h2.34v5.32h6.1v-5.32h2.34v13.38h-2.34v-6h-6.1v6H127Z"/><path class="b" d="M145.9,137.09a6.28,6.28,0,0,1,2.69.56,6.15,6.15,0,0,1,2,1.52,6.69,6.69,0,0,1,1.26,2.23,8.57,8.57,0,0,1,0,5.42,6.69,6.69,0,0,1-1.26,2.23,5.86,5.86,0,0,1-2,1.51,6.85,6.85,0,0,1-5.38,0,5.92,5.92,0,0,1-2-1.51,6.89,6.89,0,0,1-1.27-2.23,8.57,8.57,0,0,1,0-5.42,6.89,6.89,0,0,1,1.27-2.23,6.21,6.21,0,0,1,2-1.52A6.31,6.31,0,0,1,145.9,137.09Zm0,1.91a3.71,3.71,0,0,0-1.84.44,3.6,3.6,0,0,0-1.27,1.15,5.41,5.41,0,0,0-.72,1.64,7.76,7.76,0,0,0,0,3.75,5.41,5.41,0,0,0,.72,1.64,3.79,3.79,0,0,0,6.23,0,5.41,5.41,0,0,0,.72-1.64,7.76,7.76,0,0,0,0-3.75,5.41,5.41,0,0,0-.72-1.64,3.6,3.6,0,0,0-1.27-1.15A3.72,3.72,0,0,0,145.9,139Z"/><path class="b" d="M161.2,146.33a3.11,3.11,0,0,0,.26,1.32,2.53,2.53,0,0,0,.73.89,3,3,0,0,0,1.08.5,5.08,5.08,0,0,0,1.32.16,4.19,4.19,0,0,0,1.31-.18,2.51,2.51,0,0,0,.88-.46,1.58,1.58,0,0,0,.49-.64,2,2,0,0,0,.15-.74,1.62,1.62,0,0,0-.34-1.14,2.12,2.12,0,0,0-.76-.51,16,16,0,0,0-1.66-.5l-2.34-.61a5.13,5.13,0,0,1-1.43-.59A3.44,3.44,0,0,1,160,143a3.09,3.09,0,0,1-.48-1,4,4,0,0,1-.14-1,3.46,3.46,0,0,1,.42-1.75,3.78,3.78,0,0,1,1.12-1.23,4.69,4.69,0,0,1,1.57-.72,6.75,6.75,0,0,1,1.78-.24,7.07,7.07,0,0,1,2,.27,5.1,5.1,0,0,1,1.63.82,3.84,3.84,0,0,1,1.53,3.19h-2.34a2.28,2.28,0,0,0-.88-1.83,3.5,3.5,0,0,0-2-.54,4.07,4.07,0,0,0-.84.09,2.56,2.56,0,0,0-.79.28,1.76,1.76,0,0,0-.59.53,1.44,1.44,0,0,0-.23.85,1.41,1.41,0,0,0,.44,1.11,2.8,2.8,0,0,0,1.15.61l.59.16,1.15.31,1.25.33.87.23a3.81,3.81,0,0,1,1.14.57,3.32,3.32,0,0,1,.82.81,3.46,3.46,0,0,1,.49,1,3.82,3.82,0,0,1,.16,1,3.91,3.91,0,0,1-.46,1.93,4,4,0,0,1-1.21,1.3,5.28,5.28,0,0,1-1.71.74,8,8,0,0,1-1.95.23,7.87,7.87,0,0,1-2.15-.28,5,5,0,0,1-1.77-.86,4.21,4.21,0,0,1-1.2-1.49,4.94,4.94,0,0,1-.46-2.15Z"/><path class="b" d="M174.92,145.55l-5-8.14h2.71l3.55,6,3.48-6h2.63l-5,8.14v5.24h-2.34Z"/><path class="b" d="M184.74,146.33a3.11,3.11,0,0,0,.26,1.32,2.46,2.46,0,0,0,.74.89,3,3,0,0,0,1.07.5,5.08,5.08,0,0,0,1.32.16,4.25,4.25,0,0,0,1.32-.18,2.7,2.7,0,0,0,.88-.46,1.64,1.64,0,0,0,.48-.64,2,2,0,0,0,.15-.74,1.62,1.62,0,0,0-.34-1.14,2,2,0,0,0-.76-.51,16,16,0,0,0-1.66-.5l-2.33-.61a5.08,5.08,0,0,1-1.44-.59,3.44,3.44,0,0,1-.91-.81,2.86,2.86,0,0,1-.47-1,3.62,3.62,0,0,1-.15-1,3.46,3.46,0,0,1,.43-1.75,3.65,3.65,0,0,1,1.11-1.23,4.66,4.66,0,0,1,1.58-.72,6.7,6.7,0,0,1,1.78-.24,7,7,0,0,1,2,.27,5.15,5.15,0,0,1,1.64.82,4,4,0,0,1,1.11,1.34,3.91,3.91,0,0,1,.41,1.85h-2.34a2.25,2.25,0,0,0-.88-1.83,3.48,3.48,0,0,0-2-.54,4.14,4.14,0,0,0-.84.09,2.56,2.56,0,0,0-.79.28,1.76,1.76,0,0,0-.59.53,1.52,1.52,0,0,0-.23.85,1.41,1.41,0,0,0,.44,1.11,2.86,2.86,0,0,0,1.15.61l.59.16,1.15.31,1.25.33.87.23a4,4,0,0,1,1.15.57,3.5,3.5,0,0,1,1.3,1.79,3.82,3.82,0,0,1,.16,1,3.91,3.91,0,0,1-.46,1.93,4,4,0,0,1-1.21,1.3,5.28,5.28,0,0,1-1.71.74,8.39,8.39,0,0,1-4.1,0,5,5,0,0,1-1.76-.86,4.21,4.21,0,0,1-1.2-1.49,4.94,4.94,0,0,1-.47-2.15Z"/><path class="b" d="M194.08,137.41h10.83v2h-4.25v11.35h-2.35V139.44h-4.23Z"/><path class="b" d="M206.47,137.41h9.63v2h-7.29v3.5h6.75v1.91h-6.75v3.92h7.42v2h-9.76Z"/><path class="b" d="M218.24,137.41h3.3l3.69,10.48h0l3.6-10.48h3.26v13.38H229.9V140.47h0l-3.71,10.32h-1.93l-3.71-10.32h0v10.32h-2.23Z"/><path class="b" d="M236.1,146.33a3.11,3.11,0,0,0,.26,1.32,2.53,2.53,0,0,0,.73.89,3.14,3.14,0,0,0,1.08.5,5.08,5.08,0,0,0,1.32.16,4.25,4.25,0,0,0,1.32-.18,2.7,2.7,0,0,0,.88-.46,1.64,1.64,0,0,0,.48-.64,2,2,0,0,0,.15-.74A1.62,1.62,0,0,0,242,146a2,2,0,0,0-.76-.51,16,16,0,0,0-1.66-.5l-2.33-.61a5.08,5.08,0,0,1-1.44-.59,3.44,3.44,0,0,1-.91-.81,3.09,3.09,0,0,1-.48-1,4,4,0,0,1-.14-1,3.36,3.36,0,0,1,.43-1.75,3.65,3.65,0,0,1,1.11-1.23,4.66,4.66,0,0,1,1.58-.72,6.7,6.7,0,0,1,1.78-.24,7,7,0,0,1,2,.27,5,5,0,0,1,1.63.82,3.84,3.84,0,0,1,1.53,3.19H242a2.25,2.25,0,0,0-.88-1.83,3.5,3.5,0,0,0-2-.54,4.14,4.14,0,0,0-.84.09,2.56,2.56,0,0,0-.79.28,1.76,1.76,0,0,0-.59.53,1.44,1.44,0,0,0-.23.85,1.41,1.41,0,0,0,.44,1.11,2.8,2.8,0,0,0,1.15.61l.59.16,1.15.31,1.25.33.87.23a3.81,3.81,0,0,1,1.14.57,3.32,3.32,0,0,1,.82.81,3.46,3.46,0,0,1,.49,1,3.82,3.82,0,0,1,.16,1,3.91,3.91,0,0,1-.46,1.93,4,4,0,0,1-1.21,1.3,5.28,5.28,0,0,1-1.71.74,8.39,8.39,0,0,1-4.1,0,5,5,0,0,1-1.76-.86,4.21,4.21,0,0,1-1.2-1.49,4.94,4.94,0,0,1-.47-2.15Z"/></svg>