<svg xmlns="http://www.w3.org/2000/svg" xmlns:xlink="http://www.w3.org/1999/xlink" viewBox="0 0 120.01 21.1"><defs><style>.a,.f{fill:none;}.b{fill:#3e3a39;}.c{clip-path:url(#a);}.d{fill:url(#b);}.e{clip-path:url(#c);}.f{stroke:#fff;stroke-miterlimit:10;stroke-width:2.45px;}</style><clipPath id="a"><polygon class="a" points="6.37 1.62 0.75 11.36 6.37 21.1 17.62 21.1 23.24 11.36 17.62 1.62 6.37 1.62"/></clipPath><linearGradient id="b" x1="-181.82" y1="155.12" x2="-180.82" y2="155.12" gradientTransform="matrix(22.5, 0, 0, -22.5, 4091.04, 3501.04)" gradientUnits="userSpaceOnUse"><stop offset="0" stop-color="#fff"/><stop offset="0" stop-color="#4c93d0"/><stop offset="1" stop-color="#48479b"/></linearGradient><clipPath id="c"><polygon class="a" points="6.31 1.51 0.62 11.36 6.31 21.21 17.68 21.21 23.37 11.36 17.68 1.51 6.31 1.51"/></clipPath></defs><title>アセット 1</title><polygon class="b" points="28.82 19.29 28.82 3.43 30.61 3.43 30.61 17.51 44.66 17.51 44.66 19.29 28.82 19.29"/><rect class="b" x="45.85" y="3.45" width="1.8" height="15.84"/><polygon class="b" points="50.65 19.29 50.65 3.45 53.09 3.45 64.7 17.27 64.7 3.45 66.49 3.45 66.49 19.29 64.05 19.29 52.43 5.47 52.43 19.29 50.65 19.29"/><polygon class="b" points="69 19.29 69 3.45 83.45 3.45 83.45 5.23 70.78 5.23 70.78 10.47 80.96 10.47 80.96 12.27 70.78 12.27 70.78 17.51 83.45 17.51 83.45 19.29 69 19.29"/><path class="b" d="M85.85,19.29V6.09a2.63,2.63,0,0,1,2.64-2.64H99.05a2.63,2.63,0,0,1,2.64,2.64v13.2H99.9V13.5H87.63v5.79Zm1.78-7.57H99.9V6.09a.84.84,0,0,0-.25-.61.86.86,0,0,0-.6-.25H88.49a.86.86,0,0,0-.61.25.84.84,0,0,0-.25.61Z"/><path class="b" d="M104.17,19.29V3.47h13.2a2.51,2.51,0,0,1,1.87.78A2.53,2.53,0,0,1,120,6.11v4.64a2.65,2.65,0,0,1-2.64,2.64H115l5,5.88v0h-2.35l-4.95-5.9-6.66,0v5.92Zm2.64-7.7h10.56a.83.83,0,0,0,.6-.24.81.81,0,0,0,.24-.6V6.11a.85.85,0,0,0-.24-.6.81.81,0,0,0-.6-.26H106.81a.83.83,0,0,0-.6.26.82.82,0,0,0-.25.6v4.64a.79.79,0,0,0,.25.6.85.85,0,0,0,.6.24"/><g class="c"><rect class="d" x="0.75" y="1.62" width="22.5" height="19.48"/></g><g class="e"><polyline class="f" points="21.48 17.38 2.12 17.38 11.8 0.61"/><polyline class="f" points="17.25 1.4 10.85 12.49 23.72 12.49"/></g></svg>